<?xml version="1.0" encoding="UTF-8" standalone="no"?>
<!DOCTYPE svg PUBLIC "-//W3C//DTD SVG 1.1//EN"
"http://www.w3.org/Graphics/SVG/1.1/DTD/svg11.dtd">


<!-- Page 1 -->
<svg x="0" y="0" width="1100" height="678" viewBox="0 0 1100 678" version="1.1" xmlns="http://www.w3.org/2000/svg" xmlns:xlink="http://www.w3.org/1999/xlink"
style="display: block;margin-left: auto;margin-right: auto;">
<defs>
<clipPath id="c_1"><path d="M0,0H1100V678H0Z"/></clipPath>
<style type="text/css"><![CDATA[
text { white-space: pre; }
path, image { pointer-events: none; }

.s1{
font-size: 13.75px;
font-family: 'Times New Roman', Times, serif;
fill: #4D4D4D;
}
.s2{
font-size: 16.81px;
font-family: 'Times New Roman', Times, serif;
fill: #000000;
}
.s3{
font-size: 13.75px;
font-family: 'Times New Roman', Times, serif;
fill: #000000;
}

.g0{
fill: #FFFFFF;
stroke: #FFFFFF;
stroke-width: 1.634;
stroke-linecap: round;
stroke-linejoin: round;
}
.g1{
fill: #FFFFFF;
}
.g2{
fill: none;
stroke: #EBEBEB;
stroke-width: 0.809;
stroke-linecap: butt;
stroke-linejoin: round;
}
.g3{
fill: none;
stroke: #EBEBEB;
stroke-width: 1.634;
stroke-linecap: butt;
stroke-linejoin: round;
}
.g4{
fill: none;
stroke: #F8766D;
stroke-width: 0.32;
stroke-linecap: butt;
stroke-linejoin: round;
stroke-opacity: 0.502;
}
.g5{
fill: none;
stroke: #00BFC4;
stroke-width: 0.32;
stroke-linecap: butt;
stroke-linejoin: round;
stroke-opacity: 0.502;
}
.g6{
fill: none;
stroke: #7CAE00;
stroke-width: 0.32;
stroke-linecap: butt;
stroke-linejoin: round;
stroke-opacity: 0.502;
}
.g7{
fill: none;
stroke: #C77CFF;
stroke-width: 0.32;
stroke-linecap: butt;
stroke-linejoin: round;
stroke-opacity: 0.502;
}
.g8{
fill: none;
stroke: #333333;
stroke-width: 1.634;
stroke-linecap: round;
stroke-linejoin: round;
}
.g9{
fill: none;
stroke: #333333;
stroke-width: 1.634;
stroke-linecap: butt;
stroke-linejoin: round;
}
.ga{
fill: #FFFFFF;
fill-opacity: 0.8;
}
.gb{
fill: none;
stroke: #F8766D;
stroke-width: 6.523;
stroke-linecap: butt;
stroke-linejoin: round;
}
.gc{
fill: none;
stroke: #7CAE00;
stroke-width: 6.523;
stroke-linecap: butt;
stroke-linejoin: round;
}
.gd{
fill: none;
stroke: #00BFC4;
stroke-width: 6.523;
stroke-linecap: butt;
stroke-linejoin: round;
}
.ge{
fill: none;
stroke: #C77CFF;
stroke-width: 6.523;
stroke-linecap: butt;
stroke-linejoin: round;
}

]]></style>

</defs>
<g clip-path="url(#c_1)">
<path d="M0,0
L0,678
L1100,678
L1100,0 Z " 
fill="#FFFFFF" stroke="none"/>
<path d="M0,678.3H1100V-1.4H0V678.3Z" class="g0"/>
<path d="M49,629.9H1091.6V6.9H49v623Z" class="g1"/>
<path d="M49,525.3H1091.6M49,404H1091.6M49,282.8H1091.6M49,161.5H1091.6M49,40.3H1091.6M66.8,629.9V6.9m59.2,623V6.9m59.3,623V6.9m59.2,623V6.9m59.2,623V6.9m59.3,623V6.9m59.2,623V6.9m59.2,623V6.9m59.3,623V6.9m59.2,623V6.9m59.3,623V6.9m59.2,623V6.9m59.3,623V6.9m59.2,623V6.9m59.2,623V6.9m59.3,623V6.9m59.2,623V6.9m59.3,623V6.9" class="g2"/>
<path d="M49,585.9H1091.6M49,464.6H1091.6M49,343.4H1091.6M49,222.2H1091.6M49,100.9H1091.6M96.4,629.9V6.9m59.2,623V6.9m59.3,623V6.9m59.2,623V6.9m59.2,623V6.9m59.3,623V6.9m59.2,623V6.9m59.3,623V6.9m59.2,623V6.9m59.3,623V6.9m59.2,623V6.9m59.2,623V6.9m59.3,623V6.9m59.2,623V6.9m59.3,623V6.9m59.2,623V6.9m59.2,623V6.9" class="g3"/>
<path d="M214.9,384.2l59.2,-7.5l59.2,-7.5l59.3,-7.6l59.2,-7.4l59.3,-7.1l59.2,-6.7l59.3,-6.1l59.2,-5.8L748,323.2l59.3,-5.1l59.2,-4.9l59.3,-4.9L985,303.5l59.2,-4.6" class="g4"/>
<path d="M96.4,174.2l59.2,-4l59.3,-3.5l59.2,-3l59.2,-2.5l59.3,-2.3l59.2,-2.4l59.3,-2.9l59.2,-3.5L629.6,146l59.2,-4.5L748,136.9l59.3,-4.3l59.2,-3.8l59.3,-3.2L985,123l59.2,-2M96.4,218.6l59.2,-5.9l59.3,-6l59.2,-6.1l59.2,-6.1l59.3,-5.9L451.8,183l59.3,-5.1l59.2,-4.6l59.3,-4.2l59.2,-3.6L748,162.2l59.3,-2.9l59.2,-2.8l59.3,-2.7L985,151.1l59.2,-2.6" class="g5"/>
<path d="M96.4,499.6l59.2,-13.1l59.3,-13.9l59.2,-14.1l59.2,-14.2l59.3,-14l59.2,-13.8l59.3,-13.6l59.2,-13.3L629.6,377l59.2,-11.7L748,355l59.3,-8.8l59.2,-7.3L925.8,333L985,328.4l59.2,-3.8" class="g6"/>
<path d="M96.4,179.2l59.2,-2.5l59.3,-2.5l59.2,-2.5l59.2,-2.3l59.3,-2.3l59.2,-2.3l59.3,-2.1l59.2,-2.1l59.3,-2.1l59.2,-2L748,154.6l59.3,-2l59.2,-1.9l59.3,-1.9L985,146.9l59.2,-1.9M96.4,175.7l59.2,-2.5l59.3,-2.4l59.2,-2.3l59.2,-2.2l59.3,-2l59.2,-2l59.3,-2.1l59.2,-1.9l59.3,-2l59.2,-2l59.2,-2l59.3,-2l59.2,-2l59.3,-2L985,144.4l59.2,-2" class="g7"/>
<path d="M96.4,205.1l59.2,-4.8l59.3,-3.8l59.2,-2.8l59.2,-2l59.3,-1.4l59.2,-1.1L511.1,188l59.2,-1.6l59.3,-2.1l59.2,-2.5L748,178.9l59.3,-3l59.2,-2.8l59.3,-2.5L985,168.3l59.2,-2.1" class="g6"/>
<path d="M96.4,110.2l59.2,-4.9l59.3,-3.6L274.1,98l59.2,-3l59.3,-4.3l59.2,-2.4l59.3,-3.1L570.3,84l59.3,-1.8l59.2,-1.9L748,77.9l59.3,-1.8l59.2,-1.3L925.8,73L985,71.8l59.2,-1.2m-947.8,53l59.2,-5.4l59.3,-1.3l59.2,.6l59.2,-6.7L392.6,109l59.2,-6.6l59.3,-3.7l59.2,-3l59.3,1.2l59.2,-3L748,89l59.3,.5l59.2,-2.4l59.3,-4.3L985,86.5l59.2,3.6" class="g7"/>
<path d="M96.4,261.4l59.2,-3.5l59.3,-4.1l59.2,-4.9l59.2,-5.5l59.3,-6.1L451.8,231l59.3,-6.1l59.2,-5.6l59.3,-5l59.2,-4.1L748,206.9l59.3,-2.7l59.2,-2.1l59.3,-1.8L985,198.9l59.2,-1.3" class="g5"/>
<path d="M96.4,193.4l59.2,-3.6l59.3,-3.7l59.2,-3.5l59.2,-3.3l59.3,-3.1l59.2,-2.7L511.1,171l59.2,-2.3l59.3,-2.2l59.2,-2.1L748,162.5l59.3,-1.9l59.2,-1.9l59.3,-1.8L985,155.1l59.2,-1.8m-947.8,15l59.2,-2.4l59.3,-2.2l59.2,-2.2l59.2,-2l59.3,-1.9l59.2,-1.9L511.1,154l59.2,-1.8l59.3,-1.7l59.2,-1.8L748,147l59.3,-1.7l59.2,-1.7l59.3,-1.7L985,140.2l59.2,-1.7" class="g7"/>
<path d="M96.4,278.8l59.2,-7l59.3,-6.6l59.2,-6.3L333.3,253l59.3,-5.8l59.2,-5.7L511.1,236l59.2,-5.5l59.3,-5.4l59.2,-5.3L748,214.6l59.3,-5l59.2,-4.8l59.3,-4.5L985,196l59.2,-4" class="g6"/>
<path d="M96.4,181.2l59.2,-1.9l59.3,-1.9l59.2,-1.9l59.2,-1.9l59.3,-1.9l59.2,-2l59.3,-1.9l59.2,-2l59.3,-2l59.2,-1.9l59.2,-2L807.3,158l59.2,-1.9l59.3,-1.9L985,152.4l59.2,-1.9" class="g7"/>
<path d="M96.4,235.3l59.2,4.9l59.3,5.5l59.2,-6l59.2,-4.9l59.3,1.3l59.2,-6.7l59.3,-9.8l59.2,-3l59.3,.6h59.2L748,215.4l59.3,-17.1l59.2,-6.1l59.3,-6.1L985,178.2l59.2,-2.4" class="g5"/>
<path d="M96.4,128.5l59.2,-3l59.3,-1.3l59.2,-.6l59.2,-9.1l59.3,-1.2l59.2,-4.9l59.3,-4.9l59.2,1.3l59.3,-4.3l59.2,-1.8L748,93.8l59.3,2.4l59.2,-2.4l59.3,-8.5L985,88.9h59.2" class="g7"/>
<path d="M96.4,242.4l59.2,-.3l59.3,-1.3l59.2,-1.9l59.2,-2.4L392.6,234l59.2,-2.4l59.3,-2L570.3,228l59.3,-1.1l59.2,-.8l59.2,-.7l59.3,-.8l59.2,-1.2l59.3,-1.6l59.2,-2l59.2,-2.3" class="g5"/>
<path d="M96.4,399.3l59.2,-3.4l59.3,-4.3l59.2,-5l59.2,-5.5l59.3,-5.6l59.2,-5.6l59.3,-5.3l59.2,-4.9l59.3,-4.3l59.2,-3.8L748,348.3l59.3,-3.1L866.5,342l59.3,-3.1L985,335.7l59.2,-3.3" class="g4"/>
<path d="M96.4,334.2l59.2,-10.5l59.3,-10.4l59.2,-10.2l59.2,-9.7l59.3,-9.2l59.2,-8.4L511.1,268l59.2,-6.9l59.3,-6.4L688.8,249L748,243.7l59.3,-5l59.2,-4.9l59.3,-4.7L985,224.4l59.2,-4.6M96.4,335l59.2,-6.9l59.3,-6.9l59.2,-6.9l59.2,-6.9l59.3,-6.9l59.2,-7l59.3,-7l59.2,-7l59.3,-7l59.2,-6.8L748,259.2l59.3,-6.1l59.2,-5.8l59.3,-5.2L985,237.2l59.2,-4.4" class="g6"/>
<path d="M96.4,168.7l59.2,-3l59.3,-2l59.2,-1.8l59.2,-1.5l59.3,-1.6l59.2,-1.5l59.3,-1.7L570.3,154l59.3,-1.7l59.2,-1.7L748,148.7l59.3,-2l59.2,-2l59.3,-2.1L985,140.5l59.2,-2.1M96.4,476.4l59.2,2.3l59.3,-3.2l59.2,-8.3l59.2,-12.6l59.3,-16.2l59.2,-18.6l59.3,-19.6l59.2,-19.4l59.3,-18.6L688.8,345L748,329.1L807.3,314l59.2,-14.6l59.3,-14L985,272.5L1044.2,261M96.4,221.5l59.2,-5.2l59.3,-5l59.2,-4.8l59.2,-4.6l59.3,-4.5L451.8,193l59.3,-4.4l59.2,-4.4l59.3,-4.3l59.2,-4.3L748,171.5l59.3,-3.8l59.2,-3.5L925.8,161L985,158.1l59.2,-2.7" class="g5"/>
<path d="M96.4,159.1l59.2,-2.7l59.3,-2.8l59.2,-2.7l59.2,-2.6l59.3,-2.4l59.2,-2l59.3,-1.5l59.2,-.9l59.3,-.6l59.2,-.2l59.2,-.2l59.3,-.4l59.2,-.7l59.3,-1.1L985,136.7l59.2,-1.9" class="g7"/>
<path d="M96.4,202l59.2,-1.3l59.3,-1.2l59.2,-2.4l59.2,-6h59.3l59.2,-.6l59.3,-.6l59.2,-3.7l59.3,-5.4l59.2,-1.2L748,171.7l59.3,-1.9l59.2,-6.6l59.3,4.8L985,166.2h59.2" class="g5"/>
<path d="M96.4,458.7l59.2,-4.9l59.3,-5.9l59.2,-7l59.2,-7.8l59.3,-8.6l59.2,-9.1l59.3,-9.5l59.2,-9.4l59.3,-9.2l59.2,-8.7L748,370.5l59.3,-7.4l59.2,-6.9L925.8,350L985,344.3l59.2,-5.3M96.4,445.9l59.2,-2.8l59.3,-2.4l59.2,-2.6l59.2,-3l59.3,-3.6l59.2,-4.3l59.3,-4.9L570.3,417l59.3,-5.5l59.2,-5.8L748,399.9l59.3,-5.7l59.2,-5.4l59.3,-5.3L985,378.6l59.2,-4.7" class="g4"/>
<path d="M96.4,225.2l59.2,-7.4l59.3,-6.3l59.2,-5l59.2,-3.6l59.3,-2.1l59.2,-1l59.3,-.3l59.2,-.2l59.3,-.2l59.2,-.5l59.2,-.9l59.3,-1.3l59.2,-1.6l59.3,-2L985,190.6l59.2,-2.4M96.4,362.4l59.2,-10.9L214.9,340l59.2,-11.6l59.2,-11.5L392.6,306l59.2,-10.2l59.3,-9.3L570.3,278l59.3,-7.5l59.2,-6.6L748,258.1l59.3,-5.2L866.5,248l59.3,-4.6L985,238.9l59.2,-4.4M96.4,464.3l59.2,-5.7l59.3,-6.8l59.2,-7.4l59.2,-7.7l59.3,-7.4l59.2,-7l59.3,-6.6l59.2,-6l59.3,-5.6l59.2,-5.2l59.2,-5L807.3,389l59.2,-5.2l59.3,-5.4L985,372.7l59.2,-5.9" class="g6"/>
<path d="M96.4,110.2l59.2,-3.1l59.3,-1.2l59.2,-3l59.2,-3.7l59.3,-1.8h59.2l59.3,-3.1l59.2,-1.8l59.3,-3.1l59.2,-3L748,83.3l59.3,-1.6l59.2,-2.3l59.3,-2.2L985,75.1L1044.2,73" class="g7"/>
<path d="M96.4,538.2l59.2,2.2l59.3,.4l59.2,-1.3l59.2,-3.1l59.3,-4.7l59.2,-6l59.3,-7.1l59.2,-7.8l59.3,-8.1l59.2,-8.5L748,485.5l59.3,-9.2l59.2,-9.5l59.3,-9.7L985,447.5l59.2,-9.2M96.4,493.8l59.2,-.1l59.3,-.4l59.2,-1l59.2,-1.6l59.3,-2.5l59.2,-3.5l59.3,-4.6l59.2,-5.5l59.3,-6.2l59.2,-6.6L748,455.2l59.3,-6.3l59.2,-5.8l59.3,-5.2L985,433.4l59.2,-4" class="g4"/>
<path d="M96.4,139.8l59.2,-2.9l59.3,-2.7l59.2,-2.4l59.2,-2.2l59.3,-1.9L451.8,126l59.3,-1.6l59.2,-1.6l59.3,-1.5l59.2,-1.6L748,117.9L807.3,116l59.2,-2.1l59.3,-2.3L985,109.2l59.2,-2.5" class="g7"/>
<path d="M96.4,198.4L155.6,193l59.3,-5.3l59.2,-5L333.3,178l59.3,-4.2l59.2,-3.7l59.3,-3.3l59.2,-2.9l59.3,-2.8l59.2,-2.4L748,156.4l59.3,-2.2l59.2,-2l59.3,-2L985,148.3l59.2,-2M96.4,209.8l59.2,-3.3l59.3,-3.2l59.2,-3.1l59.2,-3.1l59.3,-2.9l59.2,-2.8l59.3,-2.6l59.2,-2.4L629.6,184l59.2,-2.2L748,179.7l59.3,-2.1l59.2,-2.1l59.3,-2.1L985,171.2l59.2,-2.2" class="g5"/>
<path d="M96.4,349.9l59.2,-.8L214.9,348l59.2,-1.4l59.2,-2l59.3,-2.7l59.2,-3.4l59.3,-4l59.2,-4.4l59.3,-4.6l59.2,-4.7L748,316.2l59.3,-4.3L866.5,308l59.3,-3.6L985,301.3l59.2,-2.8" class="g4"/>
<path d="M96.4,447.7l59.2,-2.2l59.3,-5.3l59.2,-8.3l59.2,-11l59.3,-13.1l59.2,-14.5l59.3,-14.9l59.2,-14.7L629.6,350l59.2,-12.3L748,326.8l59.3,-9.7l59.2,-8.7l59.3,-7.9l59.2,-7l59.2,-6.2" class="g6"/>
<path d="M96.4,131.8L155.6,130l59.3,-1.7l59.2,-1.5l59.2,-1.6l59.3,-1.4l59.2,-1.5l59.3,-1.5l59.2,-1.5l59.3,-1.6L688.8,116L748,114.1l59.3,-2L866.5,110l59.3,-2.3L985,105.3l59.2,-2.3" class="g5"/>
<path d="M96.4,505l59.2,1.3l59.3,-.9l59.2,-2.6l59.2,-4.3L392.6,493l59.2,-6.3l59.3,-6.9l59.2,-6.9l59.3,-6.8l59.2,-6.6L748,453.2l59.3,-6.3l59.2,-6.4l59.3,-6.4L985,427.6l59.2,-6.4" class="g6"/>
<path d="M96.4,188.1l59.2,-20.7L214.9,165l59.2,1.2l59.2,-11l59.3,3.4l59.2,-7.2l59.3,1.6l59.2,-2.5l59.3,-3.1l59.2,-3.8L748,140l59.3,-1.8l59.2,-2.5l59.3,-4.2l59.2,2.4l59.2,-9M96.4,141.4l59.2,-2.7l59.3,-2.9l59.2,-3.1l59.2,-3.5l59.3,-3.4l59.2,-3.4l59.3,-2.9L570.3,117l59.3,-1.9l59.2,-1.6L748,112.2L807.3,111l59.2,-1.4L925.8,108L985,106.1l59.2,-2.1" class="g5"/>
<path d="M96.4,125l59.2,-1.5l59.3,-1.6l59.2,-1.4L333.3,119l59.3,-1.5l59.2,-1.6l59.3,-1.8l59.2,-1.9l59.3,-2.1l59.2,-2.3L748,105.5l59.3,-2.3L866.5,101l59.3,-2.2L985,96.7l59.2,-1.9M96.4,161.9l59.2,-2.5l59.3,-.6l59.2,.7l59.2,-6.7l59.3,-2.5L451.8,143l59.3,-2.4l59.2,-3l59.3,-1.3l59.2,-4.2L748,126.7l59.3,-2.5L866.5,123l59.3,-7.8l59.2,2.9l59.2,3" class="g7"/>
<path d="M96.4,464.1l59.2,-7.5l59.3,-8.7l59.2,-9.2l59.2,-9.4l59.3,-9.2l59.2,-8.8l59.3,-8.4L570.3,395l59.3,-7.3l59.2,-6.8L748,374.7l59.3,-5.8l59.2,-5.5l59.3,-5.2L985,353l59.2,-5" class="g4"/>
<path d="M96.4,142.2l59.2,-2.4l59.3,-1.2l59.2,-3.1l59.2,-4.2l59.3,-4.2L451.8,124l59.3,-1.2l59.2,-3.1l59.3,-1.8l59.2,-6.1L748,103.3l59.3,-3l59.2,-3l59.3,-4.9h118.4" class="g7"/>
<path d="M96.4,215.3l59.2,-2.5l59.3,-2.7l59.2,-2.6l59.2,-2.6l59.3,-2.7l59.2,-2.6L511.1,197l59.2,-2.6l59.3,-2.5l59.2,-2.5L748,187l59.3,-2.4l59.2,-2.4l59.3,-2.3L985,177.6l59.2,-2.3M96.4,186.6l59.2,-3.5l59.3,-3.2l59.2,-2.8l59.2,-2.7L392.6,172l59.2,-2.2l59.3,-2.2l59.2,-2.2l59.3,-2.2L688.8,161L748,158.6l59.3,-2.5l59.2,-2.6l59.3,-2.6L985,148.2l59.2,-2.8" class="g5"/>
<path d="M96.4,239l59.2,-2.4l59.3,-2l59.2,-1.9l59.2,-1.8l59.3,-2l59.2,-2.1l59.3,-2.2l59.2,-2.2l59.3,-2.3l59.2,-2.3L748,215.5l59.3,-2.3l59.2,-2.4l59.3,-2.2L985,206.3l59.2,-2.1M96.4,236.3l59.2,-3.7l59.3,-3.7l59.2,-3.6l59.2,-3.7l59.3,-3.8l59.2,-3.7l59.3,-3.8l59.2,-3.8l59.3,-3.7l59.2,-3.7L748,195.5l59.3,-3.4l59.2,-3.3l59.3,-3.2L985,182.5l59.2,-2.9" class="g6"/>
<path d="M96.4,431.3l59.2,-4.2l59.3,-3.9l59.2,-3.5l59.2,-3.4L392.6,413l59.2,-3.5l59.3,-3.8l59.2,-4l59.3,-4.3L688.8,393L748,388.7l59.3,-4.1l59.2,-3.7l59.3,-3.3L985,374.5l59.2,-3" class="g5"/>
<path d="M96.4,400.9l59.2,-7.1L214.9,386l59.2,-8.3l59.2,-9l59.3,-9.4l59.2,-9.5l59.3,-9.2L570.3,332l59.3,-7.9L688.8,317L748,310.4" class="g4"/>
<path d="M96.4,217.1l59.2,1.9l59.3,-7.8l59.2,-5L333.3,199l59.3,-8l59.2,-1.5L511.1,188l59.2,-11.6l59.3,-12.7l59.2,-7.4L748,146.6l59.3,-1.2l59.2,-9.8l59.3,1.3L985,130.1l59.2,-1.8" class="g7"/>
<path d="M96.4,441.1l59.2,-7.9l59.3,-9.1l59.2,-10.5l59.2,-11.7l59.3,-12.7l59.2,-13.5L511.1,362l59.2,-13.5l59.3,-12.9l59.2,-11.9L748,313.1l59.3,-9.4l59.2,-8.2l59.3,-7.1L985,282.3l59.2,-5.3" class="g4"/>
<path d="M96.4,251.8l59.2,-2.2l59.3,-2.1l59.2,-2.1l59.2,-1.9l59.3,-2l59.2,-2l59.3,-2l59.2,-2.1l59.3,-2.2L688.8,231L748,228.8l59.3,-2.1l59.2,-2.1l59.3,-2L985,220.7l59.2,-1.8" class="g5"/>
<path d="M96.4,131.6l59.2,-6l59.3,-1.9l59.2,-3l59.2,-4.2l59.3,-1.3l59.2,-4.8l59.3,-.6l59.2,-3.7l59.3,-1.8l59.2,-1.8L748,95.2l59.3,-1.9l59.2,-4.2l59.3,-2.5L985,83l59.2,-3.7M96.4,112.4l59.2,-1.3l59.3,-1.2l59.2,1.7L333.3,98.9h59.3l59.2,-7.8l59.3,-3.7l59.2,-1.2l59.3,-2.4l59.2,-3.1L748,75.3L807.3,77l59.2,-3l59.3,-5.5L985,73.3h59.2" class="g7"/>
<path d="M96.4,351.9l59.2,1.6l59.3,.1l59.2,-1.3l59.2,-3l59.3,-4.6l59.2,-6l59.3,-7L570.3,324l59.3,-7.8l59.2,-7.9L748,300.7l59.3,-7.2l59.2,-6.9l59.3,-6.4L985,274.5l59.2,-5.1" class="g5"/>
<path d="M96.4,392.8l59.2,-4.9L214.9,383l59.2,-4.8l59.2,-4.8l59.3,-4.7l59.2,-4.6l59.3,-4.3l59.2,-4.2l59.3,-3.9L688.8,348L748,344.5l59.3,-3.4l59.2,-3.2l59.3,-3.1l59.2,-3l59.2,-2.9" class="g4"/>
<path d="M96.4,199l59.2,-3.3L214.9,193l59.2,-2.1l59.2,-1.3l59.3,-.6h59.2l59.3,.4l59.2,.3l59.3,.3h59.2l59.2,-.3l59.3,-.8l59.2,-1.1l59.3,-1.4L985,184.6l59.2,-2" class="g6"/>
<path d="M96.4,126l59.2,-4.8l59.3,1.2l59.2,-1.9l59.2,-3.6l59.3,-3.1l59.2,-2.4l59.3,-4.9l59.2,-2.4l59.3,-1.2L688.8,101L748,95.6l59.3,-1.2l59.2,.6l59.3,-7.3L985,93.1h59.2" class="g7"/>
<path d="M96.4,379.9L155.6,378l59.3,-3.2l59.2,-4.3l59.2,-5.1l59.3,-5.8l59.2,-6.1l59.3,-6l59.2,-5.7l59.3,-5.1l59.2,-4.5l59.2,-4l59.3,-3.7l59.2,-3.7l59.3,-3.5L985,313.7l59.2,-3.5" class="g6"/>
<path d="M570.3,101.6l59.3,-3l59.2,-2.4L748,92l59.3,1.2l59.2,-7.9l59.3,-1.2L985,88.3h59.2" class="g7"/>
<path d="M96.4,218.1l59.2,-2.6l59.3,-2.7l59.2,-2.7l59.2,-2.7l59.3,-2.7l59.2,-2.8l59.3,-2.8l59.2,-2.9l59.3,-2.9l59.2,-2.9L748,187.7l59.3,-2.5L866.5,183l59.3,-1.9L985,179.3l59.2,-1.5" class="g5"/>
<path d="M96.4,248.2l59.2,-5.5l59.3,-5l59.2,-4.5L333.3,229l59.3,-4l59.2,-3.9l59.3,-4l59.2,-4.2l59.3,-4.4L688.8,204L748,199.5l59.3,-4.4l59.2,-4l59.3,-3.7L985,184l59.2,-3.2" class="g6"/>
<path d="M96.4,450.3l59.2,-.6L214.9,447l59.2,-4.9L333.3,435l59.3,-8.8l59.2,-9.7l59.3,-9.7l59.2,-9.1l59.3,-8l59.2,-7.1L748,376.4l59.3,-6.1L866.5,364l59.3,-6.6l59.2,-7l59.2,-7.2M96.4,437.1l59.2,-2.2l59.3,-2.2l59.2,-2.6l59.2,-2.8l59.3,-3.4l59.2,-3.7l59.3,-3.9l59.2,-4.2l59.3,-4.3l59.2,-4.4L748,398.9l59.3,-4.7l59.2,-4.7l59.3,-4.9L985,379.8l59.2,-4.9" class="g4"/>
<path d="M96.4,283.6L155.6,282l59.3,-1.6L274.1,279l59.2,-1.4l59.3,-1.3L451.8,275l59.3,-1.2l59.2,-1.2l59.3,-1.1l59.2,-1.1L748,269.2L807.3,268l59.2,-1.2l59.3,-1.3L985,264.2l59.2,-1.4" class="g5"/>
<path d="M96.4,371.1L155.6,368l59.3,-3.3l59.2,-3.5l59.2,-4l59.3,-4.3l59.2,-4.8l59.3,-5L570.3,338l59.3,-5.2l59.2,-5.1L748,322.8l59.3,-4.6l59.2,-4.3L925.8,310L985,306.4l59.2,-3.4" class="g4"/>
<path d="M96.4,215.6L155.6,213l59.3,-2.5l59.2,-2.3l59.2,-2.3l59.3,-2.3l59.2,-2.3L511.1,199l59.2,-2.2l59.3,-2.2l59.2,-2.1L748,190.3l59.3,-2.2l59.2,-2.2l59.3,-2.3L985,181.2l59.2,-2.4" class="g6"/>
<path d="M96.4,207l59.2,-12.1l59.3,-1.2l59.2,.6L333.3,190h59.3l59.2,-5.4l59.3,-.7l59.2,-6.6l59.3,-2.5l59.2,-3.7L748,163.2l59.3,-2.4l59.2,-6.1l59.3,-2.4l59.2,2.3h59.2M96.4,105.1L155.6,92.5l59.3,2.3l59.2,-5.6l59.2,-.4l59.3,-6.1l59.2,4.2l59.3,-3.6l59.2,-1.9l59.3,-1.7l59.2,-1.8L748,72.3l59.3,-6.8l59.2,10.4l59.3,-9.7L985,71h59.2" class="g7"/>
<path d="M96.4,312.1l59.2,-4.8l59.3,-4.7l59.2,-4.8L333.3,293l59.3,-4.8l59.2,-5l59.3,-5.1L570.3,273l59.3,-5l59.2,-4.9L748,258.4l59.3,-4.5l59.2,-4l59.3,-3.8L985,242.7l59.2,-3.1M96.4,267.2L155.6,265l59.3,-2.1l59.2,-2.2l59.2,-2.2l59.3,-2.3l59.2,-2.4l59.3,-2.3l59.2,-2.4l59.3,-2.3l59.2,-2.2L748,242.4l59.3,-2.2l59.2,-2.1L925.8,236L985,234l59.2,-2" class="g6"/>
<path d="M96.4,220.4l59.2,-4.6l59.3,-4.6L274.1,207l59.2,-4l59.3,-4l59.2,-4.2l59.3,-4.6l59.2,-5l59.3,-5.3l59.2,-5.4L748,169.1l59.3,-5l59.2,-4.4l59.3,-3.8L985,152.7l59.2,-2.7M274.1,237.4l59.2,2.5l59.3,2.3l59.2,1.6l59.3,.7l59.2,-.2L629.6,243l59.2,-2.2L748,237.9l59.3,-3.2l59.2,-3.1l59.3,-2.9L985,226.1l59.2,-2.3" class="g5"/>
<path d="M96.4,142.9l59.2,-7.2l59.3,-6.1l59.2,-6.1l59.2,-4.9l59.3,-4.9l59.2,-3.6l59.3,-4.9l59.2,-5.5l59.3,-1.1l59.2,-6.7L748,91.8l59.3,-1.2l59.2,-1.8l59.3,-4.3L985,83.3l59.2,-1.9M96.4,113.6l59.2,-5.5l59.3,-.5l59.2,-2.4l59.2,-6.1h59.3l59.2,-4.9l59.3,.6l59.2,-5.4l59.3,-5.5l59.2,-2.4L748,80.8l59.3,-.6L866.5,76l59.3,-1.2L985,76l59.2,-4.3M96.4,103.6l59.2,-4.2l59.3,-1.3l59.2,3l59.2,-9.7h59.3l59.2,-6l59.3,-1.9l59.2,-.6l59.3,-1.8l59.2,-4.9L748,74.4l59.3,-.6l59.2,-5.5l59.3,-4.9L985,70.1h59.2" class="g7"/>
<path d="M96.4,193.9L155.6,192l59.3,-2.4l59.2,-2.7l59.2,-3.2l59.3,-3.3l59.2,-3.6l59.3,-3.6l59.2,-3.6l59.3,-3.5L688.8,163L748,160.1l59.3,-2.6l59.2,-2.3l59.3,-2L985,151.4l59.2,-1.6" class="g5"/>
<path d="M96.4,87.9l59.2,-4.2L214.9,82l59.2,-2.4l59.2,-3.3l59.3,1.3l59.2,-4.8l59.3,-2.3l59.2,-1l59.3,-4.1l59.2,1L748,69.5l59.3,-6.1l59.2,-2.9l59.3,-3.1L985,54.9l59.2,-2.3" class="g7"/>
<path d="M96.4,201.2L155.6,199l59.3,-2.1l59.2,-2.1l59.2,-2.1l59.3,-2l59.2,-2l59.3,-2l59.2,-2l59.3,-1.9l59.2,-2L748,178.9l59.3,-2l59.2,-1.8l59.3,-1.9L985,171.4l59.2,-1.7" class="g6"/>
<path d="M96.4,276.5l59.2,-3L214.9,271l59.2,1.3l59.2,-.3l59.3,-.3l59.2,-3l59.3,-4.2l59.2,-6.2l59.3,-17.1l59.2,1.6L748,234.5l59.3,-7.6l59.2,-10.2l59.3,-14.2L985,197.9l59.2,-3.6" class="g5"/>
<path d="M96.4,443.4l59.2,-3l59.3,-6.9l59.2,-10.2l59.2,-13.4l59.3,-15.8l59.2,-17.6l59.3,-18.4l59.2,-18L629.6,323l59.2,-15.2l59.2,-13l59.3,-10.9l59.2,-9l59.3,-7.2L985,262.2l59.2,-4.1M96.4,294.9l59.2,-2.8l59.3,-2.4l59.2,-2.1l59.2,-1.7l59.3,-1.4l59.2,-1.3l59.3,-1.1L570.3,281l59.3,-1.2l59.2,-1.3L748,276.9l59.3,-1.7l59.2,-1.9l59.3,-2L985,269.1l59.2,-2.3" class="g6"/>
<path d="M96.4,183.8l59.2,-.8l59.3,-.9l59.2,-.8l59.2,-.8l59.3,-.8l59.2,-1l59.3,-1.1l59.2,-1.1l59.3,-1.2l59.2,-1.4L748,172.5L807.3,171l59.2,-1.4l59.3,-1.5L985,166.6l59.2,-1.4" class="g7"/>
<path d="M96.4,239.6l59.2,-1.8l59.3,6.7l59.2,-1.2l59.2,1.2l59.3,2.4l59.2,3.2l59.3,-2.4l59.2,-6.8L629.6,233l59.2,-2.4L748,227l59.3,-4.9l59.2,-2.4l59.3,-2.4l59.2,-3l59.2,-3.7M96.4,356.5l59.2,-7l59.3,-7l59.2,-7l59.2,-6.9l59.3,-6.9l59.2,-6.8l59.3,-6.5l59.2,-6.3l59.3,-5.9l59.2,-5.6L748,285.3l59.3,-5l59.2,-4.8L925.8,271L985,266.6l59.2,-4.2" class="g6"/>
<path d="M96.4,218.3l59.2,-5.4l59.3,-2.4l59.2,-3.7l59.2,-9.2l59.3,8.1l59.2,6l59.3,-1.9l59.2,-17l59.3,-8l59.2,-4.9L748,178.8l59.3,-2.5l59.2,-2.4l59.3,-1.8L985,167.8l59.2,-.6" class="g7"/>
<path d="M96.4,168.2l59.2,-5.9l59.3,-5.8l59.2,-5.8l59.2,-5.5l59.3,-5.3L451.8,135l59.3,-4.4l59.2,-4l59.3,-3.5l59.2,-3.2L748,117.2l59.3,-2.5l59.2,-2.3l59.3,-2.2L985,108.1l59.2,-2.1" class="g5"/>
<path d="M96.4,484l59.2,14.7l59.3,9.7l59.2,4.5l59.2,-.7l59.3,-5.4l59.2,-9l59.3,-11l59.2,-11.4l59.3,-10.9l59.2,-9.9L748,446.1l59.3,-7.6l59.2,-7.1L925.8,425L985,419.2l59.2,-5.2" class="g6"/>
<path d="M96.4,435.3l59.2,-1.5l59.3,-3.3l59.2,-6.1l59.2,-9.3l59.3,-11.7l59.2,-13.2l59.3,-12.9l59.2,-11.7l59.3,-9.8l59.2,-7.9L748,341.5l59.3,-5.6l59.2,-5.4l59.3,-5.6L985,319.1l59.2,-6.1" class="g4"/>
<path d="M96.4,216.4l59.2,-1.7l59.3,-2l59.2,-2.3L333.3,208l59.3,-2.4l59.2,-1.9l59.3,-1.3l59.2,-.6h59.3l59.2,.4l59.2,.6" class="g5"/>
<path d="M96.4,197.7l59.2,4.3l59.3,-1.2l59.2,-3.6l59.2,1.2l59.3,8.6l59.2,2.4l59.3,1.8l59.2,-11l59.3,-13.4l59.2,-4.3L748,178.9l59.3,-3.6l59.2,-.6l59.3,-7.3l59.2,2.4h59.2M96.4,126.7l59.2,.6l59.3,-1.7l59.2,2.9l59.2,-16.9l59.3,-3.8l59.2,1.7l59.3,-1.1l59.2,-14l59.3,-1.2h59.2L748,88.9L807.3,84l59.2,-4.9l59.3,-5.2L985,73.1h59.2" class="g7"/>
<path d="M96.4,361.8L155.6,354l59.3,-7.2l59.2,-6.5l59.2,-6l59.3,-5.6l59.2,-5.3l59.3,-5.2L570.3,313l59.3,-5.3l59.2,-5.4L748,296.9l59.3,-5.4l59.2,-5.2l59.3,-5.1l59.2,-5l59.2,-4.7M96.4,507.7l59.2,-3.2L214.9,499l59.2,-8.2L333.3,480l59.3,-13.5l59.2,-16l59.3,-17.7L570.3,414l59.3,-19l59.2,-18.4l59.2,-17l59.3,-15.3L866.5,331l59.3,-11L985,311.1l59.2,-6.8" class="g4"/>
<path d="M96.4,188.2l59.2,-2l59.3,-1.8l59.2,-1.6l59.2,-1.3l59.3,-1.3l59.2,-1.4l59.3,-1.6l59.2,-1.8l59.3,-2l59.2,-2.3L748,168.7l59.3,-2.4L866.5,164l59.3,-2.2l59.2,-2l59.2,-1.9m-947.8,65l59.2,-11l59.3,-10.8l59.2,-10.5l59.2,-9.9l59.3,-8.9l59.2,-7.5l59.3,-6l59.2,-4.6l59.3,-3.3L688.8,148L748,146.3l59.3,-1.8l59.2,-2l59.3,-2.6L985,136.8l59.2,-3.6" class="g5"/>
<path d="M96.4,488l59.2,-8.3l59.3,-9.5l59.2,-10.1l59.2,-10.3l59.3,-10.1l59.2,-9.5l59.3,-8.6l59.2,-7.8L629.6,407l59.2,-6L748,395.6l59.3,-5.2l59.2,-5.2l59.3,-5.5L985,374l59.2,-5.9" class="g4"/>
<path d="M96.4,122.7l59.2,-7.8l59.3,1.3l59.2,2.3L333.3,110l59.3,-.6l59.2,-1.7l59.3,-4.3l59.2,1.9L629.6,98L688.8,84L748,91.8h59.3L866.5,79.7l59.3,-2.4L985,79.1h59.2" class="g7"/>
<path d="M96.4,342.8l59.2,-1.1l59.3,-1.3l59.2,-1.6l59.2,-1.9l59.3,-2.3l59.2,-2.8l59.3,-2.9l59.2,-3.2l59.3,-3.3l59.2,-3.2L748,316.1l59.3,-2.9l59.2,-2.7l59.3,-2.3L985,306l59.2,-1.9" class="g6"/>
<path d="M96.4,202l59.2,-1.3l59.3,-2.4l59.2,-1.9l59.2,-1.9l59.3,-1.8h59.2L511.1,191h59.2l59.3,-3.8l59.2,-1L748,182.5l59.3,-7.2l59.2,-1.9l59.3,-2.1L985,169.4l59.2,-.5m-947.8,.3l59.2,-2.8l59.3,-2.6l59.2,-2.3l59.2,-2.2l59.3,-2l59.2,-1.9l59.3,-1.8l59.2,-1.8L629.6,150l59.2,-1.8L748,146.4l59.3,-2l59.2,-2l59.3,-2.1L985,138.1l59.2,-2.2" class="g5"/>
<path d="M96.4,254.9l59.2,-1.4L214.9,252l59.2,-1.7l59.2,-1.7l59.3,-1.8L451.8,245l59.3,-1.6l59.2,-1.6l59.3,-1.3l59.2,-1.2L748,238.2l59.3,-1.1L866.5,236l59.3,-1.3L985,233.3l59.2,-1.4M96.4,308.6l59.2,-5.4l59.3,-5.6l59.2,-5.5l59.2,-5.3l59.3,-5.3l59.2,-5.3l59.3,-5.4l59.2,-5.6l59.3,-5.7l59.2,-5.6L748,248.6l59.3,-4.8l59.2,-4.2l59.3,-3.5L985,233.2l59.2,-2.4M96.4,237.6l59.2,-5.9l59.3,-6.4l59.2,-6.7l59.2,-7l59.3,-7.1l59.2,-6.9l59.3,-6.7l59.2,-6.3l59.3,-5.8l59.2,-5.1L748,169.1L807.3,165l59.2,-3.8l59.3,-3.4L985,154.6l59.2,-3" class="g6"/>
<path d="M96.4,484.7l59.2,-6.2l59.3,-6.7l59.2,-7.2l59.2,-8l59.3,-8.5l59.2,-8.7l59.3,-8.5l59.2,-8.2L629.6,415l59.2,-7.3L748,400.5l59.3,-7.1L866.5,386l59.3,-7.4L985,371.1l59.2,-7.2" class="g4"/>
<path d="M96.4,317.5l59.2,-3.8L214.9,310l59.2,-3.5l59.2,-3.4l59.3,-3.3l59.2,-3.4l59.3,-3.7l59.2,-3.9l59.3,-4.1l59.2,-4.1l59.2,-4L807.3,273l59.2,-3.1l59.3,-2.7L985,265l59.2,-1.8" class="g6"/>
<path d="M96.4,396.6l59.2,9.9l59.3,7.9l59.2,5.5l59.2,2.5l59.3,-1l59.2,-5l59.3,-8.9l59.2,-11.9l59.3,-14.4l59.2,-15.8L748,349.1l59.3,-15.6l59.2,-14.1l59.3,-12.1L985,297.5l59.2,-7.3" class="g5"/>
<path d="M96.4,314.5L155.6,306l59.3,-8l59.2,-7.7l59.2,-7.2l59.3,-6.8l59.2,-6.4l59.3,-6.1l59.2,-5.7l59.3,-5.4l59.2,-5.3l59.2,-5l59.3,-4.9l59.2,-4.8l59.3,-4.6L985,223.5l59.2,-4.4" class="g4"/>
<path d="M96.4,125.3l59.2,-2.5l59.3,-1.2l59.2,-2.4l59.2,-7.3l59.3,-3.1l59.2,-4.2l59.3,-4.9l59.2,-1.8l59.3,-3.7l59.2,-1.8L748,86.3l59.3,1.2l59.2,-2.4l59.3,-4.9L985,82.6h59.2M96.4,117.4l59.2,-.6l59.3,-1.9l59.2,-3.6l59.2,-4.9l59.3,-3.7l59.2,-2.4l59.3,-1.2l59.2,-2.5l59.3,-4.2h59.2L748,89.9l59.3,-3l59.2,-3.1l59.3,.1L985,83.2l59.2,-1.8" class="g7"/>
<path d="M96.4,225.3l59.2,-5.7L214.9,214l59.2,-5.4l59.2,-5.1l59.3,-4.8l59.2,-4.6l59.3,-4.4l59.2,-4.3l59.3,-4.1l59.2,-4L748,173.5l59.3,-3.7l59.2,-3.5l59.3,-3.4L985,159.7l59.2,-3.1" class="g6"/>
<path d="M96.4,466.2l59.2,-7.5L214.9,451l59.2,-7.8l59.2,-8.1l59.3,-8.4L451.8,418l59.3,-9l59.2,-9.2l59.3,-9.2l59.2,-8.9L748,373.4l59.3,-7.7l59.2,-6.9l59.3,-6L985,347.4l59.2,-4.7" class="g4"/>
<path d="M96.4,509.9L155.6,507l59.3,-4l59.2,-4.9l59.2,-5.8l59.3,-6.4l59.2,-6.7l59.3,-6.7L570.3,466l59.3,-6l59.2,-5.6L748,449.1L807.3,444l59.2,-5.1l59.3,-5.2L985,428.5l59.2,-5.4" class="g6"/>
<path d="M96.4,117.5l59.2,-1.9l59.3,-2.4l59.2,-4.9l59.2,-5.5l59.3,-2.4l59.2,-3.7l59.3,-.6l59.2,-2.4l59.3,-2.4l59.2,-2.5L748,85.2l59.3,-1.9l59.2,-3.6l59.3,-4.3L985,73l59.2,-2.5M96.4,196.4l59.2,-5.5l59.3,-5.4l59.2,-5.1l59.2,-4.9l59.3,-4.6l59.2,-4.3l59.3,-3.8l59.2,-3.5l59.3,-3.2l59.2,-3L748,150.3l59.3,-2.6l59.2,-2.6l59.3,-2.7L985,139.7l59.2,-2.8" class="g7"/>
<path d="M96.4,310.3l59.2,-2.9l59.3,-2.7L274.1,302l59.2,-2.6l59.3,-2.5l59.2,-2.7l59.3,-3L570.3,288l59.3,-3.3l59.2,-3.5L748,277.7l59.3,-3.2l59.2,-3L925.8,269L985,266.8l59.2,-2" class="g6"/>
<path d="M96.4,216.2l296.2,16.5" class="g7"/>
<path d="M96.4,160.5l59.2,-2.2l59.3,-2.1l59.2,-2.1L333.3,152l59.3,-2l59.2,-2l59.3,-2.1l59.2,-2.1l59.3,-2.2l59.2,-2.2L748,137l59.3,-2.3l59.2,-2.4l59.3,-2.4L985,127.5l59.2,-2.4" class="g5"/>
<path d="M96.4,321.2l59.2,-3.7l59.3,-3.9l59.2,-4l59.2,-4l59.3,-3.8l59.2,-3.7l59.3,-3.3l59.2,-2.9l59.3,-2.5l59.2,-2.2L748,285.3l59.3,-1.8l59.2,-1.7L925.8,280L985,278.1l59.2,-1.9" class="g6"/>
<path d="M96.4,221.3l59.2,-3.2L214.9,215l59.2,-3l59.2,-2.8l59.3,-2.6l59.2,-2.5l59.3,-2.4l59.2,-2.4l59.3,-2.5l59.2,-2.4L748,192.2l59.3,-2l59.2,-1.8l59.3,-1.6L985,185.5l59.2,-1.2M96.4,215.9l59.2,-5.4l59.3,-5.2l59.2,-4.8l59.2,-4.4l59.3,-3.9l59.2,-3.6l59.3,-3.1l59.2,-2.9L629.6,180l59.2,-2.5L748,175.1l59.3,-2.5L866.5,170l59.3,-2.6L985,164.6l59.2,-2.9" class="g5"/>
<path d="M96.4,256.5l59.2,-1.7l59.3,-1.5l59.2,-1.5l59.2,-1.4L392.6,249l59.2,-1.3l59.3,-1.3l59.2,-1.3l59.3,-1.3l59.2,-1.3L748,241.1l59.3,-1.4l59.2,-1.5l59.3,-1.7L985,234.9l59.2,-1.8" class="g6"/>
<path d="M96.4,176.7l59.2,-5.5l59.3,-3.6l59.2,-1.2l59.2,-3l59.3,-1.8l59.2,-1.8l59.3,-1.2l59.2,-3.7l59.3,-1.8l59.2,-6.7L748,141l59.3,-.6l59.2,-3.1L925.8,130l59.2,1.8h59.2M96.4,145.6l59.2,-6.1l59.3,-3l59.2,-1.9l59.2,-5.5l59.3,-4.8l59.2,-4.2l59.3,1.1l59.2,-2.4l59.3,-2.5l59.2,-3.6L748,95.2l59.3,1.2l59.2,-4.2l59.3,-4.9H985l59.2,-.1M96.4,146l59.2,-1.3l59.3,-1.2l59.2,-1.1l59.2,-1.1l59.3,-1l59.2,-1.1L511.1,138l59.2,-1.3l59.3,-1.5l59.2,-1.6L748,131.9l59.3,-1.8l59.2,-1.8l59.3,-1.8L985,124.7l59.2,-1.8M96.4,150.5l59.2,-6.1l59.3,-4.3l59.2,-5.4l59.2,-5.5l59.3,-6.1l59.2,-6l59.3,-5.5l59.2,-4.8l59.3,-5.5l59.2,-1.8L748,94l59.3,-3l59.2,-5.5L925.8,80L985,76.4h59.2" class="g7"/>
<path d="M96.4,258.5l59.2,-2.2l59.3,-2.2l59.2,-1.9l59.2,-1.7l59.3,-1.9l59.2,-2.5l59.3,-3.4l59.2,-4.4l59.3,-5.5l59.2,-6L748,220.7l59.3,-5.5l59.2,-4.7l59.3,-3.6L985,204.4l59.2,-1.8" class="g6"/>
<path d="M96.4,208l59.2,.1l59.3,1.8l59.2,-3.6l59.2,-3.5l59.3,-3.4l59.2,-3.5L511.1,191h59.2l59.3,-9l59.2,-1.8L748,168.7h59.3l59.2,-7.9l59.3,1.2l59.2,-.6h59.2M96.4,276.9l59.2,1.2l59.3,3.1l59.2,1l59.2,-5.1l59.3,-.8l59.2,-14.5l59.3,-10.4L570.3,247l59.3,-8.9l59.2,-1.9L748,226l59.3,-4.7l59.2,-6.2l59.3,-2L985,208l59.2,-5.2" class="g5"/>
<path d="M96.4,483.9l59.2,-16.8l59.3,-14.2l59.2,-15.8l59.2,-18l59.3,-20.3l59.2,-21.7l59.3,-21.2l59.2,-19.3l59.3,-17l59.2,-14.3L748,293.6l59.3,-9.8l59.2,-8.3l59.3,-7.1L985,262.2l59.2,-5.2" class="g4"/>
<path d="M96.4,204.5l59.2,-2.7l59.3,-3.4l59.2,-4L333.3,190l59.3,-4.6L451.8,181l59.3,-4.1l59.2,-3.5l59.3,-3L688.8,168L748,166l59.3,-1.9l59.2,-1.9l59.3,-2.1L985,157.9l59.2,-2.4M96.4,215l59.2,-.5l59.3,-1.1l59.2,-1.5l59.2,-2l59.3,-2.5l59.2,-2.8l59.3,-2.9l59.2,-2.8l59.3,-2.6l59.2,-2.4L748,191.8l59.3,-1.9l59.2,-1.7l59.3,-1.6L985,185l59.2,-1.4m-947.8,47l59.2,-4l59.3,-4.1l59.2,-4.1L333.3,214l59.3,-4.6l59.2,-4.8l59.3,-5.1l59.2,-5.1l59.3,-5.1l59.2,-5L748,179.6l59.3,-4.4l59.2,-4l59.3,-3.7L985,164.3l59.2,-2.9" class="g5"/>
<path d="M155.6,300.7l59.3,-2.8l59.2,-3.3L333.3,291l59.3,-3.9l59.2,-3.8l59.3,-3.5l59.2,-3.1l59.3,-2.5l59.2,-2L748,270.6l59.3,-1.5l59.2,-1.4l59.3,-1.4L985,264.7l59.2,-1.6" class="g6"/>
<path d="M96.4,192.6L155.6,190l59.3,-2l59.2,-1.6l59.2,-1.1l59.3,-.9l59.2,-.8l59.3,-.8l59.2,-1l59.3,-1.4l59.2,-1.6L748,176.9l59.3,-2l59.2,-2l59.3,-2.1l59.2,-2l59.2,-2" class="g7"/>
<path d="M96.4,370.1l59.2,-4.6l59.3,-5.9l59.2,-6.9l59.2,-7.6l59.3,-8.3l59.2,-8.7L511.1,319l59.2,-9l59.3,-8.9l59.2,-8.3L748,285l59.3,-7l59.2,-6.3l59.3,-5.6l59.2,-5l59.2,-4.3" class="g4"/>
<path d="M96.4,203l59.2,-7.9l59.3,-.7l59.2,-1.8l59.2,-3l59.3,-1.8l59.2,-6.7l59.3,-3L570.3,175l59.3,-1.2l59.2,-4.2L748,167.2l59.3,-3.7l59.2,-4.2l59.3,-1.8L985,158l59.2,.6" class="g5"/>
<path d="M96.4,188.5l59.2,-5.8L214.9,209l59.2,.7l59.2,-19.8l59.3,6.4l59.2,-1L511.1,184l59.2,-.2l59.3,1l59.2,-1.4l59.2,5.7l59.3,-18.8l59.2,14L925.8,183L985,170.1l59.2,-.2" class="g7"/>
<path d="M96.4,601.6L155.6,590l59.3,-12.1l59.2,-12.2l59.2,-12.1l59.3,-11.7l59.2,-11.4l59.3,-11.3l59.2,-11.3l59.3,-11.1l59.2,-10.6L748,476.4l59.3,-8.9l59.2,-7.7l59.3,-6.7L985,447.4l59.2,-5" class="g4"/>
<path d="M96.4,125.8l59.2,-3.7l59.3,-3.6l59.2,-5.9l59.2,-5.5L392.6,101l59.2,-1.8l59.3,-3.7l59.2,-4.2l59.3,-5.5l59.2,-3.6L748,79.8l59.3,-3.1l59.2,-3l59.3,-3L985,67.6l59.2,-.6M96.4,185.2l59.2,-4.3l59.3,-2.5h59.2l59.2,-4.2l59.3,.6l59.2,-3.6l59.3,-.1l59.2,-6l59.3,-2.5l59.2,-2.4L748,149.9l59.3,-1.8l59.2,-3.7l59.3,-4.8l59.2,3h59.2M274.1,139l59.2,-4.2l59.3,-4.9l59.2,-5.8l59.3,-5.7l59.2,-2.5l59.3,-2.5l59.2,-5.5L748,101.3l59.3,-1.9L866.5,97l59.3,-9.2L985,91.5h59.2" class="g7"/>
<path d="M96.4,305.8L155.6,298l59.3,-7.6l59.2,-7.3l59.2,-7l59.3,-6.7l59.2,-6.5l59.3,-6.2l59.2,-5.9L629.6,245l59.2,-5.5L748,234.3l59.3,-4.9l59.2,-4.5l59.3,-4.1L985,216.9l59.2,-3.5" class="g6"/>
<path d="M96.4,387.8l59.2,12.9l59.3,11.8l59.2,9.9l59.2,7.3l59.3,3.8l59.2,-.5l59.3,-4.9l59.2,-8.6l59.3,-11.9l59.2,-14.4L748,377.3L807.3,361l59.2,-15.5l59.3,-14.1l59.2,-12l59.2,-9.6" class="g5"/>
<path d="M96.4,113.4l59.2,-4.8l59.3,-2.5l59.2,-.6l59.2,-3l59.3,-3.7l59.2,-7.9l59.3,-.6l59.2,-3.6L629.6,83l59.2,-1.8L748,70.9l59.3,.6l59.2,-7.9l59.3,-1.8L985,66.6h59.2" class="g7"/>
<path d="M96.4,210l59.2,-9.4l59.3,-8.9l59.2,-7.5l59.2,-5.6l59.3,-3.7l59.2,-2l59.3,-1l59.2,-.8l59.3,-.7l59.2,-1L748,168.1l59.3,-1.6l59.2,-1.8l59.3,-2L985,160.5l59.2,-2.4M96.4,362.4l59.2,-4.5l59.3,-4.6l59.2,-4.8l59.2,-5l59.3,-5.1L451.8,333l59.3,-5.4l59.2,-5.4l59.3,-5.4l59.2,-5.2L748,306.8l59.3,-4.4l59.2,-4l59.3,-3.5L985,291.8l59.2,-2.8" class="g6"/>
<path d="M96.4,248.4l59.2,-1l59.3,-1.6l59.2,-2.3l59.2,-2.9l59.3,-3.5l59.2,-3.9l59.3,-4l59.2,-4l59.3,-3.7l59.2,-3.4l59.2,-3l59.3,-2.5l59.2,-2.3l59.3,-1.9L985,206.6l59.2,-1.5" class="g5"/>
<path d="M96.4,482.6l59.2,14.2L214.9,507l59.2,5.9l59.2,1.4l59.3,-3.4l59.2,-8l59.3,-11.6l59.2,-14.2l59.3,-15.6l59.2,-16.2l59.2,-16l59.3,-15.1l59.2,-13.8l59.3,-12L985,378.5l59.2,-7.9" class="g6"/>
<path d="M96.4,105.2l59.2,-1.8l59.3,-.6l59.2,-3.1l59.2,-4.8l59.3,-.6l59.2,-2.5L511.1,90l59.2,-2.4l59.3,-3.1l59.2,-1.2L748,79l59.3,1.2l59.2,-3l59.3,-3.6l59.2,.6h59.2M96.4,104.8l59.2,-6.1l59.3,-2.5l59.2,-1.8l59.2,-6.7l59.3,-1.8l59.2,-3.1l59.3,-3l59.2,-3.1l59.3,-.6l59.2,-2.4L748,68.2h59.3L866.5,67l59.3,-4.9L985,65.8h59.2" class="g7"/>
<path d="M96.4,276.9l59.2,-5L214.9,267l59.2,-5.2l59.2,-5.3l59.3,-5.3l59.2,-5.4l59.3,-5.3l59.2,-5l59.3,-4.7l59.2,-4.3L748,222.7l59.3,-3.4l59.2,-2.9l59.3,-2.6L985,211.5l59.2,-2.1" class="g6"/>
<path d="M96.4,214.6l59.2,-2.7l59.3,-3.2l59.2,-3.8l59.2,-4.3l59.3,-4.5l59.2,-4.7l59.3,-4.6l59.2,-4.4l59.3,-4.1l59.2,-3.7L748,171.3l59.3,-3.1l59.2,-2.8l59.3,-2.6L985,160.3l59.2,-2.4M96.4,182.5l59.2,-2.4L214.9,178l59.2,-1.7l59.2,-1.4l59.3,-1.1l59.2,-1.1l59.3,-1.2l59.2,-1.6l59.3,-1.8L688.8,166L748,163.7l59.3,-2.4L866.5,159l59.3,-2.1l59.2,-2l59.2,-1.9" class="g5"/>
<path d="M214.9,328.2l59.2,-11.8l59.2,-11.9l59.3,-11.7L451.8,282l59.3,-9.4l59.2,-7.7l59.3,-5.8l59.2,-4.4L748,251.5l59.3,-2.7L866.5,246l59.3,-3.1L985,239.5l59.2,-3.8" class="g6"/>
<path d="M96.4,422.3l59.2,-.7l59.3,-1.9l59.2,-2.8l59.2,-3.5l59.3,-4.5l59.2,-5.5L511.1,397l59.2,-7.2L629.6,382l59.2,-7.9L748,366.5l59.3,-7l59.2,-6.1l59.3,-5.2L985,344l59.2,-3.4" class="g4"/>
<path d="M96.4,212.3l59.2,-1.6L214.9,209l59.2,-1.8l59.2,-1.6l59.3,-1.7l59.2,-1.6l59.3,-1.6L570.3,199l59.3,-1.6l59.2,-1.6L748,194.2l59.3,-1.7l59.2,-1.7L925.8,189L985,187.2l59.2,-1.8" class="g5"/>
<path d="M96.4,240l59.2,-.7l59.3,-.8l59.2,-.9l59.2,-1.1l59.3,-1.3l59.2,-1.6l59.3,-1.9l59.2,-2.1l59.3,-2.2l59.2,-2.3L748,222.9l59.3,-2.2l59.2,-1.9L925.8,217L985,215.4l59.2,-1.4" class="g7"/>
<path d="M96.4,183.9l59.2,-3l59.3,-2.7l59.2,-2.6l59.2,-2.3l59.3,-2.1l59.2,-1.8l59.3,-1.6l59.2,-1.4l59.3,-1.2L688.8,164L748,162.7l59.3,-1.5l59.2,-1.7l59.3,-2L985,155.2l59.2,-2.5" class="g6"/>
<path d="M96.4,222l59.2,-6.8l59.3,-6.4l59.2,-6l59.2,-5.6l59.3,-5.1l59.2,-4.7l59.3,-4.3l59.2,-4l59.3,-3.7l59.2,-3.6L748,168.4L807.3,165l59.2,-3.2l59.3,-3.2L985,155.5l59.2,-3.1M96.4,299.6l59.2,-2.8l59.3,-3.1l59.2,-3.5l59.2,-3.7l59.3,-3.9l59.2,-4.1l59.3,-4.2l59.2,-4l59.3,-3.9l59.2,-3.7L748,259.4l59.3,-2.9L866.5,254l59.3,-2.2L985,250l59.2,-1.6" class="g5"/>
<path d="M96.4,500.1l59.2,-12.7l59.3,-13.6l59.2,-13.9L333.3,446l59.3,-13.4L451.8,420l59.3,-11.9l59.2,-11l59.3,-10.2l59.2,-9L748,370.1l59.3,-6.7l59.2,-5.7l59.3,-4.9L985,348.5l59.2,-3.8" class="g4"/>
<path d="M96.4,248.1l59.2,-5.2l59.3,.2l59.2,.7l59.2,.4l59.3,2.7l59.2,-1.4l59.3,-1.8l59.2,-.4L629.6,232l59.2,-13.1L748,212.3l59.3,-1.6l59.2,-2.6l59.3,-.3l59.2,-.1l59.2,-3.5" class="g6"/>
<path d="M96.4,170.8l59.2,-3.1l59.3,-2.9l59.2,-2.9l59.2,-2.8l59.3,-2.7l59.2,-2.5l59.3,-2.4l59.2,-2.2l59.3,-2.1l59.2,-2L748,143.4l59.3,-1.9l59.2,-1.8l59.3,-1.8L985,136l59.2,-1.8M96.4,128.3l59.2,-3.1l59.3,-1.8l59.2,-3.7l59.2,-3.6l59.3,-3.7L451.8,110l59.3,-2.4l59.2,-1.8l59.3,-5.5L688.8,96L748,89.4l59.3,.5l59.2,-1.2l59.3,-3.6L985,89.3h59.2" class="g7"/>
<path d="M96.4,446.5L155.6,437l59.3,-10.8l59.2,-11.8l59.2,-12.3l59.3,-12.6l59.2,-12.4l59.3,-12l59.2,-11.5l59.3,-10.8l59.2,-10.2l59.2,-10l59.3,-9.8l59.2,-10l59.3,-9.9L985,283.4l59.2,-8.8" class="g4"/>
<path d="M96.4,141.7l59.2,-2.4L214.9,138l59.2,-1.2l59.2,-5.4h59.3l59.2,-2.5l59.3,-3.6l59.2,-.6l59.3,-4.3l59.2,-1.8L748,117.4l59.3,-1.2h59.2l59.3,-1.3l59.2,1.9h59.2M96.4,163.9l59.2,-2.6l59.3,-2.5l59.2,-2.4l59.2,-2.3l59.3,-2.2l59.2,-2l59.3,-2L570.3,146l59.3,-1.9l59.2,-1.8L748,140.4l59.3,-1.8l59.2,-1.8L925.8,135L985,133.1l59.2,-1.8" class="g7"/>
<path d="M96.4,256.7l59.2,-2.6l59.3,-2.8l59.2,-2.9l59.2,-3.1L392.6,242l59.2,-3.6l59.3,-3.9l59.2,-4.1l59.3,-4.2l59.2,-4.1L748,218.2l59.3,-3.4l59.2,-2.9l59.3,-2.3L985,207.7l59.2,-1.5m-947.8,47l59.2,-4.6l59.3,-4.5l59.2,-4.3l59.2,-4.2l59.3,-4l59.2,-3.9l59.3,-3.8l59.2,-3.6l59.3,-3.5l59.2,-3.4L748,210.2l59.3,-3.1l59.2,-2.9l59.3,-2.8L985,198.8l59.2,-2.5" class="g6"/>
<path d="M96.4,194.5l59.2,-2.7l59.3,-2.4l59.2,-2.1l59.2,-1.7l59.3,-1.4l59.2,-1.3l59.3,-1.1l59.2,-1.1l59.3,-1.2l59.2,-1.3L748,176.7l59.3,-1.6l59.2,-1.9l59.3,-1.9" class="g5"/>
<path d="M96.4,182.6l59.2,-2.7l59.3,-2.6l59.2,-2.4l59.2,-2.2l59.3,-2.2l59.2,-2.2l59.3,-2l59.2,-2.1l59.3,-2l59.2,-2.1L748,158l59.3,-2.2l59.2,-2.3l59.3,-2.3L985,148.8l59.2,-2.5M96.4,338.8l59.2,-3.1l59.3,-3.3l59.2,-3.5L333.3,325l59.3,-4.1l59.2,-4.2l59.3,-4.2l59.2,-4.1l59.3,-3.9l59.2,-3.6L748,297.5l59.3,-3.2l59.2,-2.9l59.3,-2.8L985,285.9M96.4,528.9l59.2,-9.1l59.3,-10.7L274.1,497l59.2,-13.4l59.3,-14.5l59.2,-15.7l59.3,-16.8l59.2,-17.4l59.3,-17.5l59.2,-16.9L748,369.2l59.3,-13.8l59.2,-11.8L925.8,334L985,326.5l59.2,-5.8" class="g6"/>
<path d="M688.8,428.6L748,406.4l59.3,-20.8L866.5,367l59.3,-15.8L985,338.6l59.2,-9.3" class="g4"/>
<path d="M49,629.9H1091.6V6.9H49v623Z" class="g8"/>
<text x="27" y="590" class="s1">40</text>
<text x="27" y="469" class="s1">50</text>
<text x="27" y="347" class="s1">60</text>
<text x="27" y="226" class="s1">70</text>
<text x="27" y="105" class="s1">80</text>
<path d="M44.8,585.9H49M44.8,464.6H49M44.8,343.4H49M44.8,222.2H49M44.8,100.9H49M96.4,634.1v-4.2m59.2,4.2v-4.2m59.3,4.2v-4.2m59.2,4.2v-4.2m59.2,4.2v-4.2m59.3,4.2v-4.2m59.2,4.2v-4.2m59.3,4.2v-4.2m59.2,4.2v-4.2m59.3,4.2v-4.2m59.2,4.2v-4.2m59.2,4.2v-4.2m59.3,4.2v-4.2m59.2,4.2v-4.2m59.3,4.2v-4.2m59.2,4.2v-4.2m59.2,4.2v-4.2" class="g9"/>
<text x="82" y="646" class="s1">2000</text>
<text x="141" y="646" class="s1">2001</text>
<text x="201" y="646" class="s1">2002</text>
<text x="260" y="646" class="s1">2003</text>
<text x="319" y="646" class="s1">2004</text>
<text x="378" y="646" class="s1">2005</text>
<text x="438" y="646" class="s1">2006</text>
<text x="497" y="646" class="s1">2007</text>
<text x="556" y="646" class="s1">2008</text>
<text x="615" y="646" class="s1">2009</text>
<text x="675" y="646" class="s1">2010</text>
<text x="734" y="646" class="s1">2011</text>
<text x="793" y="646" class="s1">2012</text>
<text x="852" y="646" class="s1">2013</text>
<text x="912" y="646" class="s1">2014</text>
<text x="971" y="646" class="s1">2015</text>
<text x="1030" y="646" class="s1">2016</text>
<text x="554" y="665" dx="0,-1.7,0,0" class="s2">Year</text>
<text transform="matrix(0,-1,1,0,19,425)" dx="0,0,0,0,0,0,-.3,0,0,0,0,0,0,0,-.3,0,0,0,0,0,0,0,0,0,0,0,0,0,0,0,0" class="s2">Life expectancy in each country</text>
<path d="M601,610.8h438.5V567.6H601v43.2Z" class="ga"/>
<text x="609" y="594" class="s2">Income group</text>
<path d="M711.5,602.4h26.4V576H711.5v26.4Z" class="g1"/>
<path d="M714.2,589.2h21.1" class="gb"/>
<path d="M779.5,602.4h26.4V576H779.5v26.4Z" class="g1"/>
<path d="M782.2,589.2h21.1" class="gc"/>
<path d="M878.2,602.4h26.4V576H878.2v26.4Z" class="g1"/>
<path d="M880.9,589.2H902" class="gd"/>
<path d="M968.9,602.4h26.4V576H968.9v26.4Z" class="g1"/>
<path d="M971.5,589.2h21.1" class="ge"/>
<text x="746" y="593" dx="0,0,-.3" class="s3">Low</text>
<text x="814" y="593" dx="0,0,-.3,0,0,0,0" class="s3">Low-Mid</text>
<text x="913" y="593" class="s3">Up-Mid</text>
<text x="1003" y="593" class="s3">High</text>

</g>
</svg>
